# xmcd CD database file
#
# Track frame offsets:
#	187
#	13807
#	44792
#	57970
#	87262
#	106567
#	128317
#
# Disc length: 1928 seconds
#
# Revision: 0
# Processed by: cddbd v1.5PL3 Copyright (c) Steve Scherf et al.
# Submitted via: CDex 1.51
#
DISCID=4f078607
DTITLE=Jack McDuff - Hot Barbeque
DYEAR=1965
DGENRE=Jazz
TTITLE0=Hot Barbecue
TTITLE1=The Party's Over
TTITLE2=Briar Patch
TTITLE3=Hippy Dip
TTITLE4=601 1/2 North Poplar
TTITLE5=Cry Me a River
TTITLE6=The Three Day Thang
EXTD=YEAR: 1965
EXTT0=
EXTT1=
EXTT2=
EXTT3=
EXTT4=
EXTT5=
EXTT6=
PLAYORDER=
